<?xml version="1.0" encoding="UTF-8" standalone="no"?>
<!DOCTYPE svg PUBLIC "-//W3C//DTD SVG 1.1//EN"
 "http://www.w3.org/Graphics/SVG/1.1/DTD/svg11.dtd">
<!-- Generated by graphviz version 2.40.1 (20161225.0304)
 -->
<!-- Title: dependencies Pages: 1 -->
<svg width="504pt" height="211pt"
 viewBox="0.00 0.00 504.00 211.00" xmlns="http://www.w3.org/2000/svg" xmlns:xlink="http://www.w3.org/1999/xlink">
<g id="graph0" class="graph" transform="scale(1 1) rotate(0) translate(4 207)">
<title>dependencies</title>
<polygon fill="#ffffff" stroke="transparent" points="-4,4 -4,-207 500,-207 500,4 -4,4"/>
<text text-anchor="start" x="227.0091" y="-42.4" font-family="sans-serif" font-weight="bold" font-size="14.00" fill="#000000">Legend</text>
<polygon fill="#ffffb3" stroke="transparent" points="14,-10 14,-30 34,-30 34,-10 14,-10"/>
<text text-anchor="start" x="37.629" y="-15.4" font-family="sans-serif" font-size="14.00" fill="#000000"> &#160;Declarations</text>
<polygon fill="#8dd3c7" stroke="transparent" points="127,-10 127,-30 147,-30 147,-10 127,-10"/>
<text text-anchor="start" x="150.7251" y="-15.4" font-family="sans-serif" font-size="14.00" fill="#000000"> &#160;Module</text>
<polygon fill="#80b1d3" stroke="transparent" points="213,-10 213,-30 233,-30 233,-10 213,-10"/>
<text text-anchor="start" x="236.7812" y="-15.4" font-family="sans-serif" font-size="14.00" fill="#000000"> &#160;Bootstrap</text>
<polygon fill="#fdb462" stroke="transparent" points="310,-10 310,-30 330,-30 330,-10 310,-10"/>
<text text-anchor="start" x="333.6732" y="-15.4" font-family="sans-serif" font-size="14.00" fill="#000000"> &#160;Providers</text>
<polygon fill="#fb8072" stroke="transparent" points="406,-10 406,-30 426,-30 426,-10 406,-10"/>
<text text-anchor="start" x="429.7258" y="-15.4" font-family="sans-serif" font-size="14.00" fill="#000000"> &#160;Exports</text>
<g id="clust1" class="cluster">
<title>cluster_CategoryModule</title>
<polygon fill="none" stroke="#000000" stroke-dasharray="1,5" points="92,-70 92,-195 404,-195 404,-70 92,-70"/>
</g>
<g id="clust3" class="cluster">
<title>cluster_CategoryModule_imports</title>
<polygon fill="none" stroke="#000000" points="274,-78 274,-130 396,-130 396,-78 274,-78"/>
</g>
<g id="clust6" class="cluster">
<title>cluster_CategoryModule_providers</title>
<polygon fill="none" stroke="#000000" points="100,-78 100,-130 266,-130 266,-78 100,-78"/>
</g>
<!-- MaterialModule -->
<g id="node1" class="node">
<title>MaterialModule</title>
<polygon fill="#8dd3c7" stroke="#000000" points="388.4706,-122 385.4706,-126 364.4706,-126 361.4706,-122 281.5294,-122 281.5294,-86 388.4706,-86 388.4706,-122"/>
<text text-anchor="middle" x="335" y="-99.8" font-family="Times,serif" font-size="14.00" fill="#000000">MaterialModule</text>
</g>
<!-- CategoryModule -->
<g id="node2" class="node">
<title>CategoryModule</title>
<polygon fill="#8dd3c7" stroke="#000000" points="314.3669,-187 311.3669,-191 290.3669,-191 287.3669,-187 203.6331,-187 203.6331,-151 314.3669,-151 314.3669,-187"/>
<text text-anchor="middle" x="259" y="-164.8" font-family="Times,serif" font-size="14.00" fill="#000000">CategoryModule</text>
</g>
<!-- MaterialModule&#45;&gt;CategoryModule -->
<g id="edge1" class="edge">
<title>MaterialModule&#45;&gt;CategoryModule</title>
<path fill="none" stroke="#000000" d="M297.9741,-122.1061C297.9741,-122.1061 297.9741,-140.991 297.9741,-140.991"/>
<polygon fill="#000000" stroke="#000000" points="294.4741,-140.9909 297.9741,-150.991 301.4741,-140.991 294.4741,-140.9909"/>
</g>
<!-- CategoryService -->
<g id="node3" class="node">
<title>CategoryService</title>
<ellipse fill="#fdb462" stroke="#000000" cx="183" cy="-104" rx="75.279" ry="18"/>
<text text-anchor="middle" x="183" y="-99.8" font-family="Times,serif" font-size="14.00" fill="#000000">CategoryService</text>
</g>
<!-- CategoryService&#45;&gt;CategoryModule -->
<g id="edge2" class="edge">
<title>CategoryService&#45;&gt;CategoryModule</title>
<path fill="none" stroke="#000000" d="M230.978,-118.104C230.978,-118.104 230.978,-140.7209 230.978,-140.7209"/>
<polygon fill="#000000" stroke="#000000" points="227.4781,-140.7209 230.978,-150.7209 234.4781,-140.7209 227.4781,-140.7209"/>
</g>
</g>
</svg>
