<?xml version="1.0" encoding="UTF-8" standalone="no"?>
<!DOCTYPE svg PUBLIC "-//W3C//DTD SVG 1.1//EN"
 "http://www.w3.org/Graphics/SVG/1.1/DTD/svg11.dtd">
<!-- Generated by graphviz version 2.40.1 (20161225.0304)
 -->
<!-- Title: dependencies Pages: 1 -->
<svg width="663pt" height="211pt"
 viewBox="0.00 0.00 663.00 211.00" xmlns="http://www.w3.org/2000/svg" xmlns:xlink="http://www.w3.org/1999/xlink">
<g id="graph0" class="graph" transform="scale(1 1) rotate(0) translate(4 207)">
<title>dependencies</title>
<polygon fill="#ffffff" stroke="transparent" points="-4,4 -4,-207 659,-207 659,4 -4,4"/>
<text text-anchor="start" x="306.5091" y="-42.4" font-family="sans-serif" font-weight="bold" font-size="14.00" fill="#000000">Legend</text>
<polygon fill="#ffffb3" stroke="transparent" points="93.5,-10 93.5,-30 113.5,-30 113.5,-10 93.5,-10"/>
<text text-anchor="start" x="117.129" y="-15.4" font-family="sans-serif" font-size="14.00" fill="#000000"> &#160;Declarations</text>
<polygon fill="#8dd3c7" stroke="transparent" points="206.5,-10 206.5,-30 226.5,-30 226.5,-10 206.5,-10"/>
<text text-anchor="start" x="230.2251" y="-15.4" font-family="sans-serif" font-size="14.00" fill="#000000"> &#160;Module</text>
<polygon fill="#80b1d3" stroke="transparent" points="292.5,-10 292.5,-30 312.5,-30 312.5,-10 292.5,-10"/>
<text text-anchor="start" x="316.2812" y="-15.4" font-family="sans-serif" font-size="14.00" fill="#000000"> &#160;Bootstrap</text>
<polygon fill="#fdb462" stroke="transparent" points="389.5,-10 389.5,-30 409.5,-30 409.5,-10 389.5,-10"/>
<text text-anchor="start" x="413.1732" y="-15.4" font-family="sans-serif" font-size="14.00" fill="#000000"> &#160;Providers</text>
<polygon fill="#fb8072" stroke="transparent" points="485.5,-10 485.5,-30 505.5,-30 505.5,-10 485.5,-10"/>
<text text-anchor="start" x="509.2258" y="-15.4" font-family="sans-serif" font-size="14.00" fill="#000000"> &#160;Exports</text>
<g id="clust1" class="cluster">
<title>cluster_ContactModule</title>
<polygon fill="none" stroke="#000000" stroke-dasharray="1,5" points="8,-70 8,-195 647,-195 647,-70 8,-70"/>
</g>
<g id="clust2" class="cluster">
<title>cluster_ContactModule_declarations</title>
<polygon fill="none" stroke="#000000" points="477,-78 477,-130 639,-130 639,-78 477,-78"/>
</g>
<g id="clust4" class="cluster">
<title>cluster_ContactModule_imports</title>
<polygon fill="none" stroke="#000000" points="180,-78 180,-130 469,-130 469,-78 180,-78"/>
</g>
<g id="clust7" class="cluster">
<title>cluster_ContactModule_providers</title>
<polygon fill="none" stroke="#000000" points="16,-78 16,-130 172,-130 172,-78 16,-78"/>
</g>
<!-- ContactListComponent -->
<g id="node1" class="node">
<title>ContactListComponent</title>
<polygon fill="#ffffb3" stroke="#000000" points="631.1582,-122 484.8418,-122 484.8418,-86 631.1582,-86 631.1582,-122"/>
<text text-anchor="middle" x="558" y="-99.8" font-family="Times,serif" font-size="14.00" fill="#000000">ContactListComponent</text>
</g>
<!-- ContactModule -->
<g id="node2" class="node">
<title>ContactModule</title>
<polygon fill="#8dd3c7" stroke="#000000" points="365.5968,-187 362.5968,-191 341.5968,-191 338.5968,-187 262.4032,-187 262.4032,-151 365.5968,-151 365.5968,-187"/>
<text text-anchor="middle" x="314" y="-164.8" font-family="Times,serif" font-size="14.00" fill="#000000">ContactModule</text>
</g>
<!-- ContactListComponent&#45;&gt;ContactModule -->
<g id="edge1" class="edge">
<title>ContactListComponent&#45;&gt;ContactModule</title>
<path fill="none" stroke="#000000" d="M558,-122.1061C558,-141.3391 558,-169 558,-169 558,-169 375.7461,-169 375.7461,-169"/>
<polygon fill="#000000" stroke="#000000" points="375.7462,-165.5001 365.7461,-169 375.7461,-172.5001 375.7462,-165.5001"/>
</g>
<!-- ContactRoutingModule -->
<g id="node3" class="node">
<title>ContactRoutingModule</title>
<polygon fill="#8dd3c7" stroke="#000000" points="461.2148,-122 458.2148,-126 437.2148,-126 434.2148,-122 312.7852,-122 312.7852,-86 461.2148,-86 461.2148,-122"/>
<text text-anchor="middle" x="387" y="-99.8" font-family="Times,serif" font-size="14.00" fill="#000000">ContactRoutingModule</text>
</g>
<!-- ContactRoutingModule&#45;&gt;ContactModule -->
<g id="edge2" class="edge">
<title>ContactRoutingModule&#45;&gt;ContactModule</title>
<path fill="none" stroke="#000000" d="M339.2206,-122.1061C339.2206,-122.1061 339.2206,-140.991 339.2206,-140.991"/>
<polygon fill="#000000" stroke="#000000" points="335.7206,-140.9909 339.2206,-150.991 342.7206,-140.991 335.7206,-140.9909"/>
</g>
<!-- MaterialModule -->
<g id="node4" class="node">
<title>MaterialModule</title>
<polygon fill="#8dd3c7" stroke="#000000" points="294.4706,-122 291.4706,-126 270.4706,-126 267.4706,-122 187.5294,-122 187.5294,-86 294.4706,-86 294.4706,-122"/>
<text text-anchor="middle" x="241" y="-99.8" font-family="Times,serif" font-size="14.00" fill="#000000">MaterialModule</text>
</g>
<!-- MaterialModule&#45;&gt;ContactModule -->
<g id="edge3" class="edge">
<title>MaterialModule&#45;&gt;ContactModule</title>
<path fill="none" stroke="#000000" d="M278.4684,-122.1061C278.4684,-122.1061 278.4684,-140.991 278.4684,-140.991"/>
<polygon fill="#000000" stroke="#000000" points="274.9685,-140.9909 278.4684,-150.991 281.9685,-140.991 274.9685,-140.9909"/>
</g>
<!-- ContactService -->
<g id="node5" class="node">
<title>ContactService</title>
<ellipse fill="#fdb462" stroke="#000000" cx="94" cy="-104" rx="70.0596" ry="18"/>
<text text-anchor="middle" x="94" y="-99.8" font-family="Times,serif" font-size="14.00" fill="#000000">ContactService</text>
</g>
<!-- ContactService&#45;&gt;ContactModule -->
<g id="edge4" class="edge">
<title>ContactService&#45;&gt;ContactModule</title>
<path fill="none" stroke="#000000" d="M94,-122.1061C94,-141.3391 94,-169 94,-169 94,-169 252.4198,-169 252.4198,-169"/>
<polygon fill="#000000" stroke="#000000" points="252.4198,-172.5001 262.4198,-169 252.4197,-165.5001 252.4198,-172.5001"/>
</g>
</g>
</svg>
