<?xml version="1.0" encoding="UTF-8" standalone="no"?>
<!DOCTYPE svg PUBLIC "-//W3C//DTD SVG 1.1//EN"
 "http://www.w3.org/Graphics/SVG/1.1/DTD/svg11.dtd">
<!-- Generated by graphviz version 2.40.1 (20161225.0304)
 -->
<!-- Title: dependencies Pages: 1 -->
<svg width="1424pt" height="284pt"
 viewBox="0.00 0.00 1424.00 284.00" xmlns="http://www.w3.org/2000/svg" xmlns:xlink="http://www.w3.org/1999/xlink">
<g id="graph0" class="graph" transform="scale(1 1) rotate(0) translate(4 280)">
<title>dependencies</title>
<polygon fill="#ffffff" stroke="transparent" points="-4,4 -4,-280 1420,-280 1420,4 -4,4"/>
<text text-anchor="start" x="687.0091" y="-42.4" font-family="sans-serif" font-weight="bold" font-size="14.00" fill="#000000">Legend</text>
<polygon fill="#ffffb3" stroke="transparent" points="474,-10 474,-30 494,-30 494,-10 474,-10"/>
<text text-anchor="start" x="497.629" y="-15.4" font-family="sans-serif" font-size="14.00" fill="#000000"> &#160;Declarations</text>
<polygon fill="#8dd3c7" stroke="transparent" points="587,-10 587,-30 607,-30 607,-10 587,-10"/>
<text text-anchor="start" x="610.7251" y="-15.4" font-family="sans-serif" font-size="14.00" fill="#000000"> &#160;Module</text>
<polygon fill="#80b1d3" stroke="transparent" points="673,-10 673,-30 693,-30 693,-10 673,-10"/>
<text text-anchor="start" x="696.7812" y="-15.4" font-family="sans-serif" font-size="14.00" fill="#000000"> &#160;Bootstrap</text>
<polygon fill="#fdb462" stroke="transparent" points="770,-10 770,-30 790,-30 790,-10 770,-10"/>
<text text-anchor="start" x="793.6732" y="-15.4" font-family="sans-serif" font-size="14.00" fill="#000000"> &#160;Providers</text>
<polygon fill="#fb8072" stroke="transparent" points="866,-10 866,-30 886,-30 886,-10 866,-10"/>
<text text-anchor="start" x="889.7258" y="-15.4" font-family="sans-serif" font-size="14.00" fill="#000000"> &#160;Exports</text>
<g id="clust1" class="cluster">
<title>cluster_AppModule</title>
<polygon fill="none" stroke="#000000" stroke-dasharray="1,5" points="8,-70 8,-268 1408,-268 1408,-70 8,-70"/>
</g>
<g id="clust2" class="cluster">
<title>cluster_AppModule_declarations</title>
<polygon fill="none" stroke="#000000" points="1278,-78 1278,-130 1400,-130 1400,-78 1278,-78"/>
</g>
<g id="clust4" class="cluster">
<title>cluster_AppModule_imports</title>
<polygon fill="none" stroke="#000000" points="520,-78 520,-130 1270,-130 1270,-78 520,-78"/>
</g>
<g id="clust6" class="cluster">
<title>cluster_AppModule_bootstrap</title>
<polygon fill="none" stroke="#000000" points="698,-208 698,-260 822,-260 822,-208 698,-208"/>
</g>
<g id="clust7" class="cluster">
<title>cluster_AppModule_providers</title>
<polygon fill="none" stroke="#000000" points="16,-78 16,-130 512,-130 512,-78 16,-78"/>
</g>
<!-- AppComponent -->
<g id="node1" class="node">
<title>AppComponent</title>
<polygon fill="#ffffb3" stroke="#000000" points="1391.9399,-122 1286.0601,-122 1286.0601,-86 1391.9399,-86 1391.9399,-122"/>
<text text-anchor="middle" x="1339" y="-99.8" font-family="Times,serif" font-size="14.00" fill="#000000">AppComponent</text>
</g>
<!-- AppModule -->
<g id="node2" class="node">
<title>AppModule</title>
<polygon fill="#8dd3c7" stroke="#000000" points="801.6571,-187 798.6571,-191 777.6571,-191 774.6571,-187 718.3429,-187 718.3429,-151 801.6571,-151 801.6571,-187"/>
<text text-anchor="middle" x="760" y="-164.8" font-family="Times,serif" font-size="14.00" fill="#000000">AppModule</text>
</g>
<!-- AppComponent&#45;&gt;AppModule -->
<g id="edge1" class="edge">
<title>AppComponent&#45;&gt;AppModule</title>
<path fill="none" stroke="#000000" d="M1339,-122.0109C1339,-144.4852 1339,-180 1339,-180 1339,-180 812.1066,-180 812.1066,-180"/>
<polygon fill="#000000" stroke="#000000" points="812.1067,-176.5001 802.1066,-180 812.1066,-183.5001 812.1067,-176.5001"/>
</g>
<!-- AppComponent  -->
<g id="node9" class="node">
<title>AppComponent </title>
<polygon fill="#80b1d3" stroke="#000000" points="814.439,-252 705.561,-252 705.561,-216 814.439,-216 814.439,-252"/>
<text text-anchor="middle" x="760" y="-229.8" font-family="Times,serif" font-size="14.00" fill="#000000">AppComponent </text>
</g>
<!-- AppModule&#45;&gt;AppComponent  -->
<g id="edge8" class="edge">
<title>AppModule&#45;&gt;AppComponent </title>
<path fill="none" stroke="#000000" stroke-dasharray="1,5" d="M760,-187.1061C760,-187.1061 760,-205.991 760,-205.991"/>
<polygon fill="#000000" stroke="#000000" points="756.5001,-205.9909 760,-215.991 763.5001,-205.991 756.5001,-205.9909"/>
</g>
<!-- AboutModule -->
<g id="node3" class="node">
<title>AboutModule</title>
<polygon fill="#8dd3c7" stroke="#000000" points="1262.0481,-122 1259.0481,-126 1238.0481,-126 1235.0481,-122 1167.9519,-122 1167.9519,-86 1262.0481,-86 1262.0481,-122"/>
<text text-anchor="middle" x="1215" y="-99.8" font-family="Times,serif" font-size="14.00" fill="#000000">AboutModule</text>
</g>
<!-- AboutModule&#45;&gt;AppModule -->
<g id="edge2" class="edge">
<title>AboutModule&#45;&gt;AppModule</title>
<path fill="none" stroke="#000000" d="M1215,-122.1289C1215,-142.5724 1215,-173 1215,-173 1215,-173 811.9897,-173 811.9897,-173"/>
<polygon fill="#000000" stroke="#000000" points="811.9898,-169.5001 801.9897,-173 811.9897,-176.5001 811.9898,-169.5001"/>
</g>
<!-- AppRoutingModule -->
<g id="node4" class="node">
<title>AppRoutingModule</title>
<polygon fill="#8dd3c7" stroke="#000000" points="1149.2744,-122 1146.2744,-126 1125.2744,-126 1122.2744,-122 1020.7256,-122 1020.7256,-86 1149.2744,-86 1149.2744,-122"/>
<text text-anchor="middle" x="1085" y="-99.8" font-family="Times,serif" font-size="14.00" fill="#000000">AppRoutingModule</text>
</g>
<!-- AppRoutingModule&#45;&gt;AppModule -->
<g id="edge3" class="edge">
<title>AppRoutingModule&#45;&gt;AppModule</title>
<path fill="none" stroke="#000000" d="M1085,-122.2667C1085,-140.5552 1085,-166 1085,-166 1085,-166 811.8227,-166 811.8227,-166"/>
<polygon fill="#000000" stroke="#000000" points="811.8228,-162.5001 801.8227,-166 811.8227,-169.5001 811.8228,-162.5001"/>
</g>
<!-- CategoryModule -->
<g id="node5" class="node">
<title>CategoryModule</title>
<polygon fill="#8dd3c7" stroke="#000000" points="1002.3669,-122 999.3669,-126 978.3669,-126 975.3669,-122 891.6331,-122 891.6331,-86 1002.3669,-86 1002.3669,-122"/>
<text text-anchor="middle" x="947" y="-99.8" font-family="Times,serif" font-size="14.00" fill="#000000">CategoryModule</text>
</g>
<!-- CategoryModule&#45;&gt;AppModule -->
<g id="edge4" class="edge">
<title>CategoryModule&#45;&gt;AppModule</title>
<path fill="none" stroke="#000000" d="M947,-122.0091C947,-138.0494 947,-159 947,-159 947,-159 811.9665,-159 811.9665,-159"/>
<polygon fill="#000000" stroke="#000000" points="811.9665,-155.5001 801.9665,-159 811.9664,-162.5001 811.9665,-155.5001"/>
</g>
<!-- ContactModule -->
<g id="node6" class="node">
<title>ContactModule</title>
<polygon fill="#8dd3c7" stroke="#000000" points="873.5968,-122 870.5968,-126 849.5968,-126 846.5968,-122 770.4032,-122 770.4032,-86 873.5968,-86 873.5968,-122"/>
<text text-anchor="middle" x="822" y="-99.8" font-family="Times,serif" font-size="14.00" fill="#000000">ContactModule</text>
</g>
<!-- ContactModule&#45;&gt;AppModule -->
<g id="edge5" class="edge">
<title>ContactModule&#45;&gt;AppModule</title>
<path fill="none" stroke="#000000" d="M786.1399,-122.1061C786.1399,-122.1061 786.1399,-140.991 786.1399,-140.991"/>
<polygon fill="#000000" stroke="#000000" points="782.64,-140.9909 786.1399,-150.991 789.64,-140.991 782.64,-140.9909"/>
</g>
<!-- MaterialModule -->
<g id="node7" class="node">
<title>MaterialModule</title>
<polygon fill="#8dd3c7" stroke="#000000" points="752.4706,-122 749.4706,-126 728.4706,-126 725.4706,-122 645.5294,-122 645.5294,-86 752.4706,-86 752.4706,-122"/>
<text text-anchor="middle" x="699" y="-99.8" font-family="Times,serif" font-size="14.00" fill="#000000">MaterialModule</text>
</g>
<!-- MaterialModule&#45;&gt;AppModule -->
<g id="edge6" class="edge">
<title>MaterialModule&#45;&gt;AppModule</title>
<path fill="none" stroke="#000000" d="M735.3285,-122.1061C735.3285,-122.1061 735.3285,-140.991 735.3285,-140.991"/>
<polygon fill="#000000" stroke="#000000" points="731.8286,-140.9909 735.3285,-150.991 738.8286,-140.991 731.8286,-140.9909"/>
</g>
<!-- ProjectModule -->
<g id="node8" class="node">
<title>ProjectModule</title>
<polygon fill="#8dd3c7" stroke="#000000" points="627.7036,-122 624.7036,-126 603.7036,-126 600.7036,-122 528.2964,-122 528.2964,-86 627.7036,-86 627.7036,-122"/>
<text text-anchor="middle" x="578" y="-99.8" font-family="Times,serif" font-size="14.00" fill="#000000">ProjectModule</text>
</g>
<!-- ProjectModule&#45;&gt;AppModule -->
<g id="edge7" class="edge">
<title>ProjectModule&#45;&gt;AppModule</title>
<path fill="none" stroke="#000000" d="M578,-122.0091C578,-138.0494 578,-159 578,-159 578,-159 708.2455,-159 708.2455,-159"/>
<polygon fill="#000000" stroke="#000000" points="708.2456,-162.5001 718.2455,-159 708.2455,-155.5001 708.2456,-162.5001"/>
</g>
<!-- FirestoreService -->
<g id="node10" class="node">
<title>FirestoreService</title>
<ellipse fill="#fdb462" stroke="#000000" cx="430" cy="-104" rx="74.1297" ry="18"/>
<text text-anchor="middle" x="430" y="-99.8" font-family="Times,serif" font-size="14.00" fill="#000000">FirestoreService</text>
</g>
<!-- FirestoreService&#45;&gt;AppModule -->
<g id="edge9" class="edge">
<title>FirestoreService&#45;&gt;AppModule</title>
<path fill="none" stroke="#000000" d="M430,-122.2667C430,-140.5552 430,-166 430,-166 430,-166 708.2053,-166 708.2053,-166"/>
<polygon fill="#000000" stroke="#000000" points="708.2053,-169.5001 718.2053,-166 708.2052,-162.5001 708.2053,-169.5001"/>
</g>
<!-- LoaderInterceptor -->
<g id="node11" class="node">
<title>LoaderInterceptor</title>
<ellipse fill="#fdb462" stroke="#000000" cx="257" cy="-104" rx="80.9775" ry="18"/>
<text text-anchor="middle" x="257" y="-99.8" font-family="Times,serif" font-size="14.00" fill="#000000">LoaderInterceptor</text>
</g>
<!-- LoaderInterceptor&#45;&gt;AppModule -->
<g id="edge10" class="edge">
<title>LoaderInterceptor&#45;&gt;AppModule</title>
<path fill="none" stroke="#000000" d="M257,-122.1289C257,-142.5724 257,-173 257,-173 257,-173 707.9797,-173 707.9797,-173"/>
<polygon fill="#000000" stroke="#000000" points="707.9797,-176.5001 717.9797,-173 707.9796,-169.5001 707.9797,-176.5001"/>
</g>
<!-- LoaderService -->
<g id="node12" class="node">
<title>LoaderService</title>
<ellipse fill="#fdb462" stroke="#000000" cx="91" cy="-104" rx="67.1734" ry="18"/>
<text text-anchor="middle" x="91" y="-99.8" font-family="Times,serif" font-size="14.00" fill="#000000">LoaderService</text>
</g>
<!-- LoaderService&#45;&gt;AppModule -->
<g id="edge11" class="edge">
<title>LoaderService&#45;&gt;AppModule</title>
<path fill="none" stroke="#000000" d="M91,-122.0109C91,-144.4852 91,-180 91,-180 91,-180 708.1511,-180 708.1511,-180"/>
<polygon fill="#000000" stroke="#000000" points="708.1511,-183.5001 718.1511,-180 708.151,-176.5001 708.1511,-183.5001"/>
</g>
</g>
</svg>
