<?xml version="1.0" encoding="UTF-8" standalone="no"?>
<!DOCTYPE svg PUBLIC "-//W3C//DTD SVG 1.1//EN"
 "http://www.w3.org/Graphics/SVG/1.1/DTD/svg11.dtd">
<!-- Generated by graphviz version 2.40.1 (20161225.0304)
 -->
<!-- Title: dependencies Pages: 1 -->
<svg width="1008pt" height="211pt"
 viewBox="0.00 0.00 1008.00 211.00" xmlns="http://www.w3.org/2000/svg" xmlns:xlink="http://www.w3.org/1999/xlink">
<g id="graph0" class="graph" transform="scale(1 1) rotate(0) translate(4 207)">
<title>dependencies</title>
<polygon fill="#ffffff" stroke="transparent" points="-4,4 -4,-207 1004,-207 1004,4 -4,4"/>
<text text-anchor="start" x="479.0091" y="-42.4" font-family="sans-serif" font-weight="bold" font-size="14.00" fill="#000000">Legend</text>
<polygon fill="#ffffb3" stroke="transparent" points="266,-10 266,-30 286,-30 286,-10 266,-10"/>
<text text-anchor="start" x="289.629" y="-15.4" font-family="sans-serif" font-size="14.00" fill="#000000"> &#160;Declarations</text>
<polygon fill="#8dd3c7" stroke="transparent" points="379,-10 379,-30 399,-30 399,-10 379,-10"/>
<text text-anchor="start" x="402.7251" y="-15.4" font-family="sans-serif" font-size="14.00" fill="#000000"> &#160;Module</text>
<polygon fill="#80b1d3" stroke="transparent" points="465,-10 465,-30 485,-30 485,-10 465,-10"/>
<text text-anchor="start" x="488.7812" y="-15.4" font-family="sans-serif" font-size="14.00" fill="#000000"> &#160;Bootstrap</text>
<polygon fill="#fdb462" stroke="transparent" points="562,-10 562,-30 582,-30 582,-10 562,-10"/>
<text text-anchor="start" x="585.6732" y="-15.4" font-family="sans-serif" font-size="14.00" fill="#000000"> &#160;Providers</text>
<polygon fill="#fb8072" stroke="transparent" points="658,-10 658,-30 678,-30 678,-10 658,-10"/>
<text text-anchor="start" x="681.7258" y="-15.4" font-family="sans-serif" font-size="14.00" fill="#000000"> &#160;Exports</text>
<g id="clust1" class="cluster">
<title>cluster_AboutModule</title>
<polygon fill="none" stroke="#000000" stroke-dasharray="1,5" points="8,-70 8,-195 992,-195 992,-70 8,-70"/>
</g>
<g id="clust2" class="cluster">
<title>cluster_AboutModule_declarations</title>
<polygon fill="none" stroke="#000000" points="584,-78 584,-130 984,-130 984,-78 584,-78"/>
</g>
<g id="clust6" class="cluster">
<title>cluster_AboutModule_imports</title>
<polygon fill="none" stroke="#000000" points="296,-78 296,-130 576,-130 576,-78 296,-78"/>
</g>
<g id="clust9" class="cluster">
<title>cluster_AboutModule_providers</title>
<polygon fill="none" stroke="#000000" points="16,-78 16,-130 288,-130 288,-78 16,-78"/>
</g>
<!-- AboutListComponent -->
<g id="node1" class="node">
<title>AboutListComponent</title>
<polygon fill="#ffffb3" stroke="#000000" points="976.108,-122 837.892,-122 837.892,-86 976.108,-86 976.108,-122"/>
<text text-anchor="middle" x="907" y="-99.8" font-family="Times,serif" font-size="14.00" fill="#000000">AboutListComponent</text>
</g>
<!-- AboutModule -->
<g id="node4" class="node">
<title>AboutModule</title>
<polygon fill="#8dd3c7" stroke="#000000" points="545.0481,-187 542.0481,-191 521.0481,-191 518.0481,-187 450.9519,-187 450.9519,-151 545.0481,-151 545.0481,-187"/>
<text text-anchor="middle" x="498" y="-164.8" font-family="Times,serif" font-size="14.00" fill="#000000">AboutModule</text>
</g>
<!-- AboutListComponent&#45;&gt;AboutModule -->
<g id="edge1" class="edge">
<title>AboutListComponent&#45;&gt;AboutModule</title>
<path fill="none" stroke="#000000" d="M907,-122.2921C907,-144.2057 907,-178 907,-178 907,-178 555.3171,-178 555.3171,-178"/>
<polygon fill="#000000" stroke="#000000" points="555.3171,-174.5001 545.3171,-178 555.317,-181.5001 555.3171,-174.5001"/>
</g>
<!-- AgePipe -->
<g id="node2" class="node">
<title>AgePipe</title>
<polygon fill="#ffffb3" stroke="#000000" points="820.2093,-122 755.7907,-122 755.7907,-86 820.2093,-86 820.2093,-122"/>
<text text-anchor="middle" x="788" y="-99.8" font-family="Times,serif" font-size="14.00" fill="#000000">AgePipe</text>
</g>
<!-- AgePipe&#45;&gt;AboutModule -->
<g id="edge2" class="edge">
<title>AgePipe&#45;&gt;AboutModule</title>
<path fill="none" stroke="#000000" d="M788,-122.1061C788,-141.3391 788,-169 788,-169 788,-169 555.2389,-169 555.2389,-169"/>
<polygon fill="#000000" stroke="#000000" points="555.239,-165.5001 545.2389,-169 555.2389,-172.5001 555.239,-165.5001"/>
</g>
<!-- TimestampToDatePipe -->
<g id="node3" class="node">
<title>TimestampToDatePipe</title>
<polygon fill="#ffffb3" stroke="#000000" points="737.8557,-122 592.1443,-122 592.1443,-86 737.8557,-86 737.8557,-122"/>
<text text-anchor="middle" x="665" y="-99.8" font-family="Times,serif" font-size="14.00" fill="#000000">TimestampToDatePipe</text>
</g>
<!-- TimestampToDatePipe&#45;&gt;AboutModule -->
<g id="edge3" class="edge">
<title>TimestampToDatePipe&#45;&gt;AboutModule</title>
<path fill="none" stroke="#000000" d="M665,-122.027C665,-138.3976 665,-160 665,-160 665,-160 555.4088,-160 555.4088,-160"/>
<polygon fill="#000000" stroke="#000000" points="555.4088,-156.5001 545.4088,-160 555.4088,-163.5001 555.4088,-156.5001"/>
</g>
<!-- AboutRoutingModule -->
<g id="node5" class="node">
<title>AboutRoutingModule</title>
<polygon fill="#8dd3c7" stroke="#000000" points="567.6652,-122 564.6652,-126 543.6652,-126 540.6652,-122 428.3348,-122 428.3348,-86 567.6652,-86 567.6652,-122"/>
<text text-anchor="middle" x="498" y="-99.8" font-family="Times,serif" font-size="14.00" fill="#000000">AboutRoutingModule</text>
</g>
<!-- AboutRoutingModule&#45;&gt;AboutModule -->
<g id="edge4" class="edge">
<title>AboutRoutingModule&#45;&gt;AboutModule</title>
<path fill="none" stroke="#000000" d="M498,-122.1061C498,-122.1061 498,-140.991 498,-140.991"/>
<polygon fill="#000000" stroke="#000000" points="494.5001,-140.9909 498,-150.991 501.5001,-140.991 494.5001,-140.9909"/>
</g>
<!-- MaterialModule -->
<g id="node6" class="node">
<title>MaterialModule</title>
<polygon fill="#8dd3c7" stroke="#000000" points="410.4706,-122 407.4706,-126 386.4706,-126 383.4706,-122 303.5294,-122 303.5294,-86 410.4706,-86 410.4706,-122"/>
<text text-anchor="middle" x="357" y="-99.8" font-family="Times,serif" font-size="14.00" fill="#000000">MaterialModule</text>
</g>
<!-- MaterialModule&#45;&gt;AboutModule -->
<g id="edge5" class="edge">
<title>MaterialModule&#45;&gt;AboutModule</title>
<path fill="none" stroke="#000000" d="M357,-122.027C357,-138.3976 357,-160 357,-160 357,-160 440.6568,-160 440.6568,-160"/>
<polygon fill="#000000" stroke="#000000" points="440.6568,-163.5001 450.6568,-160 440.6568,-156.5001 440.6568,-163.5001"/>
</g>
<!-- AboutService -->
<g id="node7" class="node">
<title>AboutService</title>
<ellipse fill="#fdb462" stroke="#000000" cx="216" cy="-104" rx="64.2649" ry="18"/>
<text text-anchor="middle" x="216" y="-99.8" font-family="Times,serif" font-size="14.00" fill="#000000">AboutService</text>
</g>
<!-- AboutService&#45;&gt;AboutModule -->
<g id="edge6" class="edge">
<title>AboutService&#45;&gt;AboutModule</title>
<path fill="none" stroke="#000000" d="M216,-122.1061C216,-141.3391 216,-169 216,-169 216,-169 440.7995,-169 440.7995,-169"/>
<polygon fill="#000000" stroke="#000000" points="440.7996,-172.5001 450.7995,-169 440.7995,-165.5001 440.7996,-172.5001"/>
</g>
<!-- TagService -->
<g id="node8" class="node">
<title>TagService</title>
<ellipse fill="#fdb462" stroke="#000000" cx="79" cy="-104" rx="55.013" ry="18"/>
<text text-anchor="middle" x="79" y="-99.8" font-family="Times,serif" font-size="14.00" fill="#000000">TagService</text>
</g>
<!-- TagService&#45;&gt;AboutModule -->
<g id="edge7" class="edge">
<title>TagService&#45;&gt;AboutModule</title>
<path fill="none" stroke="#000000" d="M79,-122.2921C79,-144.2057 79,-178 79,-178 79,-178 440.7499,-178 440.7499,-178"/>
<polygon fill="#000000" stroke="#000000" points="440.7499,-181.5001 450.7499,-178 440.7498,-174.5001 440.7499,-181.5001"/>
</g>
</g>
</svg>
