<?xml version="1.0" encoding="UTF-8" standalone="no"?>
<!DOCTYPE svg PUBLIC "-//W3C//DTD SVG 1.1//EN"
 "http://www.w3.org/Graphics/SVG/1.1/DTD/svg11.dtd">
<!-- Generated by graphviz version 2.40.1 (20161225.0304)
 -->
<!-- Title: dependencies Pages: 1 -->
<svg width="828pt" height="211pt"
 viewBox="0.00 0.00 828.00 211.00" xmlns="http://www.w3.org/2000/svg" xmlns:xlink="http://www.w3.org/1999/xlink">
<g id="graph0" class="graph" transform="scale(1 1) rotate(0) translate(4 207)">
<title>dependencies</title>
<polygon fill="#ffffff" stroke="transparent" points="-4,4 -4,-207 824,-207 824,4 -4,4"/>
<text text-anchor="start" x="389.0091" y="-42.4" font-family="sans-serif" font-weight="bold" font-size="14.00" fill="#000000">Legend</text>
<polygon fill="#ffffb3" stroke="transparent" points="176,-10 176,-30 196,-30 196,-10 176,-10"/>
<text text-anchor="start" x="199.629" y="-15.4" font-family="sans-serif" font-size="14.00" fill="#000000"> &#160;Declarations</text>
<polygon fill="#8dd3c7" stroke="transparent" points="289,-10 289,-30 309,-30 309,-10 289,-10"/>
<text text-anchor="start" x="312.7251" y="-15.4" font-family="sans-serif" font-size="14.00" fill="#000000"> &#160;Module</text>
<polygon fill="#80b1d3" stroke="transparent" points="375,-10 375,-30 395,-30 395,-10 375,-10"/>
<text text-anchor="start" x="398.7812" y="-15.4" font-family="sans-serif" font-size="14.00" fill="#000000"> &#160;Bootstrap</text>
<polygon fill="#fdb462" stroke="transparent" points="472,-10 472,-30 492,-30 492,-10 472,-10"/>
<text text-anchor="start" x="495.6732" y="-15.4" font-family="sans-serif" font-size="14.00" fill="#000000"> &#160;Providers</text>
<polygon fill="#fb8072" stroke="transparent" points="568,-10 568,-30 588,-30 588,-10 568,-10"/>
<text text-anchor="start" x="591.7258" y="-15.4" font-family="sans-serif" font-size="14.00" fill="#000000"> &#160;Exports</text>
<g id="clust1" class="cluster">
<title>cluster_ProjectModule</title>
<polygon fill="none" stroke="#000000" stroke-dasharray="1,5" points="8,-70 8,-195 812,-195 812,-70 8,-70"/>
</g>
<g id="clust2" class="cluster">
<title>cluster_ProjectModule_declarations</title>
<polygon fill="none" stroke="#000000" points="467,-78 467,-130 804,-130 804,-78 467,-78"/>
</g>
<g id="clust5" class="cluster">
<title>cluster_ProjectModule_imports</title>
<polygon fill="none" stroke="#000000" points="174,-78 174,-130 459,-130 459,-78 174,-78"/>
</g>
<g id="clust8" class="cluster">
<title>cluster_ProjectModule_providers</title>
<polygon fill="none" stroke="#000000" points="16,-78 16,-130 166,-130 166,-78 16,-78"/>
</g>
<!-- ProjectDetailsComponent -->
<g id="node1" class="node">
<title>ProjectDetailsComponent</title>
<polygon fill="#ffffb3" stroke="#000000" points="796.1386,-122 635.8614,-122 635.8614,-86 796.1386,-86 796.1386,-122"/>
<text text-anchor="middle" x="716" y="-99.8" font-family="Times,serif" font-size="14.00" fill="#000000">ProjectDetailsComponent</text>
</g>
<!-- ProjectModule -->
<g id="node3" class="node">
<title>ProjectModule</title>
<polygon fill="#8dd3c7" stroke="#000000" points="447.7036,-187 444.7036,-191 423.7036,-191 420.7036,-187 348.2964,-187 348.2964,-151 447.7036,-151 447.7036,-187"/>
<text text-anchor="middle" x="398" y="-164.8" font-family="Times,serif" font-size="14.00" fill="#000000">ProjectModule</text>
</g>
<!-- ProjectDetailsComponent&#45;&gt;ProjectModule -->
<g id="edge1" class="edge">
<title>ProjectDetailsComponent&#45;&gt;ProjectModule</title>
<path fill="none" stroke="#000000" d="M716,-122.2843C716,-143.3211 716,-175 716,-175 716,-175 457.6875,-175 457.6875,-175"/>
<polygon fill="#000000" stroke="#000000" points="457.6875,-171.5001 447.6875,-175 457.6875,-178.5001 457.6875,-171.5001"/>
</g>
<!-- ProjectListComponent -->
<g id="node2" class="node">
<title>ProjectListComponent</title>
<polygon fill="#ffffb3" stroke="#000000" points="617.2646,-122 474.7354,-122 474.7354,-86 617.2646,-86 617.2646,-122"/>
<text text-anchor="middle" x="546" y="-99.8" font-family="Times,serif" font-size="14.00" fill="#000000">ProjectListComponent</text>
</g>
<!-- ProjectListComponent&#45;&gt;ProjectModule -->
<g id="edge2" class="edge">
<title>ProjectListComponent&#45;&gt;ProjectModule</title>
<path fill="none" stroke="#000000" d="M546,-122.0225C546,-139.3734 546,-163 546,-163 546,-163 457.6936,-163 457.6936,-163"/>
<polygon fill="#000000" stroke="#000000" points="457.6936,-159.5001 447.6936,-163 457.6935,-166.5001 457.6936,-159.5001"/>
</g>
<!-- MaterialModule -->
<g id="node4" class="node">
<title>MaterialModule</title>
<polygon fill="#8dd3c7" stroke="#000000" points="451.4706,-122 448.4706,-126 427.4706,-126 424.4706,-122 344.5294,-122 344.5294,-86 451.4706,-86 451.4706,-122"/>
<text text-anchor="middle" x="398" y="-99.8" font-family="Times,serif" font-size="14.00" fill="#000000">MaterialModule</text>
</g>
<!-- MaterialModule&#45;&gt;ProjectModule -->
<g id="edge3" class="edge">
<title>MaterialModule&#45;&gt;ProjectModule</title>
<path fill="none" stroke="#000000" d="M398,-122.1061C398,-122.1061 398,-140.991 398,-140.991"/>
<polygon fill="#000000" stroke="#000000" points="394.5001,-140.9909 398,-150.991 401.5001,-140.991 394.5001,-140.9909"/>
</g>
<!-- ProjectRoutingModule -->
<g id="node5" class="node">
<title>ProjectRoutingModule</title>
<polygon fill="#8dd3c7" stroke="#000000" points="326.3216,-122 323.3216,-126 302.3216,-126 299.3216,-122 181.6784,-122 181.6784,-86 326.3216,-86 326.3216,-122"/>
<text text-anchor="middle" x="254" y="-99.8" font-family="Times,serif" font-size="14.00" fill="#000000">ProjectRoutingModule</text>
</g>
<!-- ProjectRoutingModule&#45;&gt;ProjectModule -->
<g id="edge4" class="edge">
<title>ProjectRoutingModule&#45;&gt;ProjectModule</title>
<path fill="none" stroke="#000000" d="M254,-122.0225C254,-139.3734 254,-163 254,-163 254,-163 338.0399,-163 338.0399,-163"/>
<polygon fill="#000000" stroke="#000000" points="338.04,-166.5001 348.0399,-163 338.0399,-159.5001 338.04,-166.5001"/>
</g>
<!-- ProjectService -->
<g id="node6" class="node">
<title>ProjectService</title>
<ellipse fill="#fdb462" stroke="#000000" cx="91" cy="-104" rx="67.1888" ry="18"/>
<text text-anchor="middle" x="91" y="-99.8" font-family="Times,serif" font-size="14.00" fill="#000000">ProjectService</text>
</g>
<!-- ProjectService&#45;&gt;ProjectModule -->
<g id="edge5" class="edge">
<title>ProjectService&#45;&gt;ProjectModule</title>
<path fill="none" stroke="#000000" d="M91,-122.2843C91,-143.3211 91,-175 91,-175 91,-175 338.3339,-175 338.3339,-175"/>
<polygon fill="#000000" stroke="#000000" points="338.334,-178.5001 348.3339,-175 338.3339,-171.5001 338.334,-178.5001"/>
</g>
</g>
</svg>
